<?xml version="1.0" standalone="no"?><!DOCTYPE svg PUBLIC "-//W3C//DTD SVG 1.1//EN" "http://www.w3.org/Graphics/SVG/1.1/DTD/svg11.dtd"><svg t="1594178366338" class="icon" viewBox="0 0 1024 1024" version="1.1" xmlns="http://www.w3.org/2000/svg" p-id="2013" xmlns:xlink="http://www.w3.org/1999/xlink" width="200" height="200"><defs><style type="text/css"></style></defs><path d="M214.39 317.34m2.02 0l600.68 0q2.02 0 2.02 2.02l0 541.08q0 2.02-2.02 2.02l-600.68 0q-2.02 0-2.02-2.02l0-541.08q0-2.02 2.02-2.02Z" fill="#FABE00" p-id="2014"></path><path d="M211.807162 319.012742m1.779942 0.014291l466.904952 3.748634q1.779943 0.014291 1.765652 1.794233l-4.347875 541.542546q-0.014291 1.779943-1.794234 1.765652l-466.904952-3.748633q-1.779943-0.014291-1.765652-1.794234l4.347876-541.542546q0.014291-1.779943 1.794233-1.765652Z" fill="#FFCF00" p-id="2015"></path><path d="M210.87 436.365l604.701 4.855-3.417 425.656a2.09 2.09 0 0 1-2.107 2.074l-600.52-4.822a2.09 2.09 0 0 1-2.074-2.106l3.418-425.657z" fill="#FF4000" p-id="2016"></path><path d="M210.018 436.792l471 4.71-4.26 425.91a1.85 1.85 0 0 1-1.868 1.831l-467.33-4.673a1.85 1.85 0 0 1-1.831-1.869l4.259-425.91z" fill="#FF5B0A" p-id="2017"></path><path d="M254.039271 436.711631m2.429921 0.019509l513.453452 4.122357q2.429922 0.019509 2.410413 2.449431l-0.933546 116.276252q-0.019509 2.429922-2.449431 2.410413l-513.453451-4.122357q-2.429922-0.019509-2.410413-2.449431l0.933546-116.276252q0.019509-2.429922 2.44943-2.410413Z" fill="#FFFFFF" p-id="2018"></path><path d="M319.45 480.11m2.57 0l430.26 0q2.57 0 2.57 2.57l0 25.14q0 2.57-2.57 2.57l-430.26 0q-2.57 0-2.57-2.57l0-25.14q0-2.57 2.57-2.57Z" fill="#A0002E" p-id="2019"></path><path d="M426.29 513.78l-10.67-0.08-2.92-40.48-10.26-141.84-0.14-0.15L390 161.2l10.55-1.56 25.74 354.14zM394.13 513.53l-21.35-0.17-6.6-90.71-3.42-47.23-15.09-207.66 21.24-3.28 5.45 75.12 19.77 273.93z" fill="#EF8D27" p-id="2020"></path><path d="M415.62 513.7l-21.49-0.17-19.77-273.93-5.45-75.12L390 161.2l12.3 170.03 0.14 0.15 10.26 141.84 2.92 40.48zM372.78 513.36l-32.03-0.26-24.72-340.65 31.64-4.69 15.09 207.66 3.42 47.23 6.6 90.71z" fill="#FFAC42" p-id="2021"></path><path d="M398.23 283a1.71 1.71 0 0 1-1.37-0.69l-2.47-3.31a1.7 1.7 0 0 1 0.37-2.37 1.68 1.68 0 0 1 2.36 0.37l2.47 3.32a1.69 1.69 0 0 1-0.36 2.37 1.67 1.67 0 0 1-1 0.31zM411.72 414.78a1.71 1.71 0 0 1-1.37-0.69l-2.45-3.34a1.7 1.7 0 0 1 0.36-2.37 1.68 1.68 0 0 1 2.37 0.36l2.45 3.34a1.69 1.69 0 0 1-1.36 2.7zM393.17 448.72a1.69 1.69 0 0 1-1.36-0.7l-2.45-3.34a1.69 1.69 0 0 1 2.73-2l2.45 3.34a1.7 1.7 0 0 1-0.36 2.37 1.81 1.81 0 0 1-1.01 0.33zM402.41 333a1.69 1.69 0 0 1-1.36-0.7l-2.46-3.3a1.69 1.69 0 0 1 2.73-2l2.46 3.33a1.71 1.71 0 0 1-1.37 2.7zM412.71 474.9a1.71 1.71 0 0 1-1.37-0.7l-2.45-3.34a1.69 1.69 0 0 1 2.73-2l2.45 3.34a1.7 1.7 0 0 1-0.36 2.37 1.73 1.73 0 0 1-1 0.33zM366.79 425.12a1.71 1.71 0 0 1-1.37-0.69l-2.42-3.34a1.7 1.7 0 0 1 2.73-2l2.46 3.34a1.69 1.69 0 0 1-1.36 2.7zM400.86 363.77a1.71 1.71 0 0 1-1.37-0.7l-2.49-3.32a1.7 1.7 0 0 1 2.73-2l2.45 3.33a1.7 1.7 0 0 1-0.36 2.37 1.78 1.78 0 0 1-0.96 0.32zM366.08 477a1.72 1.72 0 0 1-1.37-0.7l-2.47-3.3a1.7 1.7 0 0 1 0.37-2.37 1.68 1.68 0 0 1 2.39 0.37l2.47 3.34a1.68 1.68 0 0 1-0.36 2.36 1.72 1.72 0 0 1-1.03 0.3zM373.19 356.19a1.69 1.69 0 0 1-1.36-0.7l-2.46-3.34a1.68 1.68 0 0 1 0.37-2.36 1.67 1.67 0 0 1 2.36 0.36l2.46 3.34a1.7 1.7 0 0 1-0.36 2.37 1.81 1.81 0 0 1-1.01 0.33zM363.35 377.83a1.72 1.72 0 0 1-1.37-0.7l-2.45-3.34a1.69 1.69 0 1 1 2.73-2l2.45 3.33a1.69 1.69 0 0 1-0.36 2.37 1.72 1.72 0 0 1-1 0.34zM411.76 210.67a1.69 1.69 0 0 1-1.36-0.7l-2.46-3.34a1.68 1.68 0 0 1 0.37-2.36 1.67 1.67 0 0 1 2.36 0.36l2.46 3.34a1.7 1.7 0 0 1-0.37 2.37 1.76 1.76 0 0 1-1 0.33zM371.17 310.2a1.69 1.69 0 0 1-1.36-0.7l-2.45-3.32a1.7 1.7 0 1 1 2.73-2l2.45 3.33a1.7 1.7 0 0 1-0.36 2.37 1.81 1.81 0 0 1-1.01 0.32zM390.53 243.05a1.68 1.68 0 0 1-1.36-0.69l-2.46-3.36a1.69 1.69 0 0 1 0.37-2.37 1.68 1.68 0 0 1 2.36 0.36l2.46 3.34a1.7 1.7 0 0 1-1.37 2.7z" fill="#FF5F00" p-id="2022"></path><path d="M534.17 514.65l-10.82-0.09-3.07-37.79-0.14-0.15-11.82-141.4-0.14-0.15-14.26-169.59 10.55-1.87 29.7 351.04zM502 514.39l-21.49-0.17-7.33-86.82-3.98-47.24-17.48-207.23 21.1-3.73 6.29 74.98L502 514.39z" fill="#EF8D27" p-id="2023"></path><path d="M523.35 514.56l-21.35-0.17-22.89-270.21-6.29-74.98 21.1-3.72 14.26 169.59 0.14 0.15 11.82 141.4 0.14 0.15 3.07 37.79zM480.51 514.22l-32.16-0.26-28.28-335.44 31.65-5.59 17.48 207.23 3.98 47.24 7.33 86.82z" fill="#FFAC42" p-id="2024"></path><path d="M503.51 287a1.7 1.7 0 0 1-1.35-0.66l-2.5-3.29a1.7 1.7 0 0 1 2.7-2.06l2.5 3.28a1.71 1.71 0 0 1-0.32 2.39 1.74 1.74 0 0 1-1.03 0.34zM518.54 418.46a1.71 1.71 0 0 1-1.35-0.67l-2.5-3.28a1.7 1.7 0 0 1 2.7-2.07l2.5 3.29a1.7 1.7 0 0 1-0.32 2.38 1.75 1.75 0 0 1-1.03 0.35z" fill="#FF5F00" p-id="2025"></path><path d="M500.39 452.81a1.7 1.7 0 0 1-1.35-0.66l-2.5-3.29a1.7 1.7 0 0 1 2.7-2.06l2.5 3.28a1.72 1.72 0 0 1-0.32 2.39 1.74 1.74 0 0 1-1.03 0.34zM508.27 336.93a1.72 1.72 0 0 1-1.35-0.66l-2.5-3.29a1.7 1.7 0 0 1 2.7-2.06l2.5 3.28a1.71 1.71 0 0 1-0.32 2.39 1.74 1.74 0 0 1-1.03 0.34zM520.22 478.53a1.7 1.7 0 0 1-1.35-0.67l-2.5-3.26a1.71 1.71 0 0 1 0.32-2.38 1.76 1.76 0 0 1 2.39 0.31l2.49 3.27a1.7 1.7 0 0 1-0.32 2.38 1.63 1.63 0 0 1-1.03 0.35zM473.73 429.83a1.75 1.75 0 0 1-1.36-0.67l-2.49-3.28a1.7 1.7 0 0 1 2.7-2.06l2.5 3.28a1.71 1.71 0 0 1-0.32 2.38 1.75 1.75 0 0 1-1.03 0.35zM507.08 367.7a1.7 1.7 0 0 1-1.35-0.66l-2.5-3.27a1.71 1.71 0 0 1 0.32-2.38 1.74 1.74 0 0 1 2.38 0.32l2.5 3.26a1.71 1.71 0 0 1-0.32 2.39 1.7 1.7 0 0 1-1.03 0.34zM473.61 481.74a1.69 1.69 0 0 1-1.35-0.67l-2.5-3.26a1.7 1.7 0 1 1 2.7-2.07L475 479a1.7 1.7 0 0 1-0.32 2.38 1.65 1.65 0 0 1-1.07 0.36zM447.8 362.68a1.71 1.71 0 0 1-1.35-0.67l-2.45-3.27a1.7 1.7 0 0 1 0.32-2.38 1.72 1.72 0 0 1 2.38 0.32l2.5 3.27a1.71 1.71 0 0 1-0.32 2.38 1.74 1.74 0 0 1-1.08 0.35zM454.85 432.51a1.7 1.7 0 0 1-1.35-0.66l-2.5-3.29a1.7 1.7 0 0 1 2.7-2.06l2.5 3.28a1.72 1.72 0 0 1-0.32 2.39 1.74 1.74 0 0 1-1.03 0.34zM479.33 360.76a1.7 1.7 0 0 1-1.35-0.66l-2.5-3.29a1.7 1.7 0 0 1 2.7-2.06l2.5 3.28a1.7 1.7 0 0 1-1.35 2.73zM469.73 382.62a1.7 1.7 0 0 1-1.35-0.67l-2.5-3.27a1.7 1.7 0 0 1 2.7-2.06l2.5 3.27a1.7 1.7 0 0 1-1.35 2.73zM516.21 214.74a1.74 1.74 0 0 1-1.35-0.67l-2.49-3.28a1.71 1.71 0 0 1 0.32-2.39 1.74 1.74 0 0 1 2.38 0.32l2.5 3.29a1.71 1.71 0 0 1-0.32 2.38 1.76 1.76 0 0 1-1.04 0.35zM476.77 314.83a1.71 1.71 0 0 1-1.35-0.67l-2.49-3.26a1.7 1.7 0 0 1 0.32-2.38 1.73 1.73 0 0 1 2.38 0.31l2.5 3.27a1.71 1.71 0 0 1-0.32 2.38 1.67 1.67 0 0 1-1.04 0.35zM475.51 221.87a1.68 1.68 0 0 1-1.35-0.69l-2.48-3.28a1.68 1.68 0 0 1 0.33-2.37 1.71 1.71 0 0 1 2.37 0.34l2.48 3.28a1.68 1.68 0 0 1-0.33 2.37 1.7 1.7 0 0 1-1.02 0.35zM459.39 230.68A1.7 1.7 0 0 1 458 230l-2.5-3.26a1.71 1.71 0 0 1 2.71-2.07l2.49 3.27a1.7 1.7 0 0 1-0.32 2.38 1.69 1.69 0 0 1-0.99 0.36zM495.35 247.6a1.69 1.69 0 0 1-1.35-0.67l-2.5-3.28a1.7 1.7 0 0 1 2.7-2.06l2.5 3.28a1.71 1.71 0 0 1-0.32 2.38 1.75 1.75 0 0 1-1.03 0.35z" fill="#FF5F00" p-id="2026"></path><path d="M615.504 515.297l2.825-359.618 10.53 0.082-2.825 359.62zM573.822 515.656l3.596-359.63 21.35 0.213-3.596 359.63z" fill="#EF8D27" p-id="2027"></path><path d="M594.3 515.134l2.824-359.619 21.21 0.167-2.825 359.619zM541.064 514.708l2.824-359.62 31.89 0.251-2.825 359.62z" fill="#FFAC42" p-id="2028"></path><path d="M616.86 278a1.68 1.68 0 0 1-1.45-0.85l-2.18-3.7a1.69 1.69 0 1 1 2.91-1.71l2.18 3.7a1.71 1.71 0 0 1-1.46 2.56zM619.71 411.2a1.72 1.72 0 0 1-1.47-0.85l-2.16-3.7a1.7 1.7 0 0 1 2.93-1.71l2.17 3.7a1.73 1.73 0 0 1-0.61 2.32 1.83 1.83 0 0 1-0.86 0.24zM570.66 260.26a1.7 1.7 0 0 1-1.47-0.84L567 255.7a1.7 1.7 0 1 1 2.93-1.71l2.18 3.71a1.72 1.72 0 0 1-0.61 2.33 1.87 1.87 0 0 1-0.84 0.23zM598.59 442a1.67 1.67 0 0 1-1.45-0.84l-2.18-3.7a1.69 1.69 0 0 1 2.91-1.72l2.18 3.71a1.71 1.71 0 0 1-1.46 2.55zM617 328.44a1.73 1.73 0 0 1-1.47-0.84l-2.16-3.71a1.7 1.7 0 0 1 2.93-1.71l2.16 3.7a1.72 1.72 0 0 1-0.61 2.33 1.87 1.87 0 0 1-0.85 0.23zM615.89 471.13a1.72 1.72 0 0 1-1.47-0.85l-2.16-3.7a1.7 1.7 0 0 1 2.93-1.71l2.17 3.7a1.72 1.72 0 0 1-0.61 2.32 1.83 1.83 0 0 1-0.86 0.24zM574.27 414.32a1.67 1.67 0 0 1-1.45-0.84l-2.18-3.71a1.69 1.69 0 1 1 2.91-1.71l2.17 3.7a1.71 1.71 0 0 1-1.45 2.56zM573.53 509.45a1.67 1.67 0 0 1-1.45-0.84l-2.18-3.71a1.68 1.68 0 1 1 2.9-1.71l2.18 3.7a1.71 1.71 0 0 1-1.45 2.56zM613 358.76a1.72 1.72 0 0 1-1.46-0.84l-2.18-3.72a1.7 1.7 0 0 1 2.93-1.71l2.18 3.71a1.72 1.72 0 0 1-0.61 2.33 1.87 1.87 0 0 1-0.86 0.23zM569.41 465.83a1.72 1.72 0 0 1-1.47-0.85l-2.16-3.7a1.7 1.7 0 0 1 2.93-1.71l2.16 3.7a1.71 1.71 0 0 1-0.61 2.32 1.76 1.76 0 0 1-0.85 0.24zM554.73 343a1.7 1.7 0 0 1-1.47-0.84l-2.16-3.7a1.7 1.7 0 0 1 2.93-1.71l2.16 3.7a1.71 1.71 0 0 1-0.61 2.32 1.75 1.75 0 0 1-0.85 0.23zM555.32 413.55a1.73 1.73 0 0 1-1.47-0.84l-2.16-3.71a1.7 1.7 0 1 1 2.93-1.71l2.17 3.71a1.73 1.73 0 0 1-0.61 2.33 1.94 1.94 0 0 1-0.86 0.22zM586.15 346.81a1.67 1.67 0 0 1-1.45-0.84l-2.18-3.71a1.68 1.68 0 1 1 2.9-1.71l2.18 3.7a1.71 1.71 0 0 1-1.45 2.56zM574.63 366.76a1.69 1.69 0 0 1-1.46-0.84L571 362.2a1.7 1.7 0 0 1 2.94-1.71l2.16 3.71a1.72 1.72 0 0 1-0.61 2.33 1.87 1.87 0 0 1-0.86 0.23z" fill="#FF5F00" p-id="2029"></path><path d="M573.53 509.45a1.67 1.67 0 0 1-1.45-0.84l-2.18-3.71a1.68 1.68 0 1 1 2.9-1.71l2.18 3.7a1.71 1.71 0 0 1-1.45 2.56zM636.19 205.91a1.66 1.66 0 0 1-1.45-0.85l-2.18-3.7a1.68 1.68 0 1 1 2.9-1.71l2.18 3.7a1.71 1.71 0 0 1-1.45 2.56zM587.82 300.78a1.72 1.72 0 0 1-1.47-0.85l-2.17-3.71a1.72 1.72 0 0 1 0.61-2.33 1.74 1.74 0 0 1 2.32 0.61l2.18 3.72a1.72 1.72 0 0 1-0.61 2.32 1.83 1.83 0 0 1-0.86 0.24zM595.21 205.59a1.73 1.73 0 0 1-1.47-0.84l-2.16-3.75a1.7 1.7 0 1 1 2.93-1.72l2.17 3.72a1.73 1.73 0 0 1-0.61 2.33 1.94 1.94 0 0 1-0.86 0.26zM578.42 211.4a1.7 1.7 0 0 1-1.46-0.85l-2.17-3.71a1.7 1.7 0 0 1 2.94-1.72l2.16 3.72a1.71 1.71 0 0 1-0.61 2.32 1.77 1.77 0 0 1-0.86 0.24zM612.52 234.72a1.67 1.67 0 0 1-1.45-0.84l-2.18-3.71a1.68 1.68 0 1 1 2.9-1.71l2.18 3.7a1.71 1.71 0 0 1-1.45 2.56z" fill="#FF5F00" p-id="2030"></path><path d="M757.42 203.24l-81.53 312.54-11.37-0.09 5.93-22.58v-0.15l35.05-133.99v-0.15l41.99-160.75 9.93 5.17zM727.49 187.87l-18.54 70.88-66.91 256.76-22.61-0.18 1.88-7.33 4.93-18.99 18.39-70.29 11.73-44.86 51.26-196.19 19.87 10.2z" fill="#EF8D27" p-id="2031"></path><path d="M747.49 198.07L705.5 358.82v0.15l-35.05 133.99v0.15l-5.93 22.58-22.48-0.18 66.91-256.76 18.54-70.88 20 10.2zM707.62 177.67l-51.26 196.19-11.73 44.86-18.39 70.29-4.93 18.99-1.88 7.33-33.85-0.27 8.97-34.25 21.87-83.74 10.86-41.72 50.4-193.05 29.94 15.37z" fill="#FFAC42" p-id="2032"></path><path d="M717.41 313a1.69 1.69 0 0 1-1.64-1.27l-1.16-4.54a1.7 1.7 0 0 1 1.22-2.06 1.76 1.76 0 0 1 2.06 1.22l1.16 4.53a1.72 1.72 0 0 1-1.22 2.07 3 3 0 0 1-0.42 0.05zM688.38 440a1.7 1.7 0 0 1-1.64-1.28l-1.16-4.53a1.7 1.7 0 0 1 1.22-2.06 1.72 1.72 0 0 1 2.06 1.22l1.14 4.55a1.7 1.7 0 0 1-1.2 2.1 1.93 1.93 0 0 1-0.42 0zM678.2 274.33a1.7 1.7 0 0 1-1.64-1.28l-1.16-4.53a1.7 1.7 0 0 1 1.22-2.06 1.75 1.75 0 0 1 2.06 1.22l1.16 4.53a1.7 1.7 0 0 1-1.22 2.06 1.93 1.93 0 0 1-0.42 0.06zM661.2 459.07a1.69 1.69 0 0 1-1.64-1.27l-1.17-4.54a1.71 1.71 0 0 1 1.22-2.06 1.78 1.78 0 0 1 2.07 1.22l1.16 4.53a1.72 1.72 0 0 1-1.22 2.07 3.19 3.19 0 0 1-0.42 0.05zM705.55 360.63a1.71 1.71 0 0 1-1.65-1.28l-1.16-4.51a1.7 1.7 0 0 1 1.22-2.06A1.73 1.73 0 0 1 706 354l1.17 4.51a1.7 1.7 0 0 1-1.22 2.06 2.13 2.13 0 0 1-0.4 0.06zM670.52 494.77a1.69 1.69 0 0 1-1.64-1.28l-1.16-4.49a1.69 1.69 0 0 1 1.22-2.06 1.73 1.73 0 0 1 2.06 1.22l1.16 4.53a1.7 1.7 0 0 1-1.22 2.06 2 2 0 0 1-0.42 0.02zM644.9 421.45a1.71 1.71 0 0 1-1.64-1.28l-1.16-4.53a1.7 1.7 0 0 1 1.22-2.06 1.74 1.74 0 0 1 2.06 1.22l1.16 4.53a1.69 1.69 0 0 1-1.22 2.06 1.93 1.93 0 0 1-0.42 0.06zM621.55 510.87a1.71 1.71 0 0 1-1.64-1.28l-1.14-4.53A1.68 1.68 0 0 1 620 503a1.72 1.72 0 0 1 2.07 1.22l1.14 4.53a1.68 1.68 0 0 1-1.22 2.06 2.13 2.13 0 0 1-0.44 0.06zM694.57 387.35a1.69 1.69 0 0 1-1.64-1.28l-1.17-4.53a1.7 1.7 0 0 1 3.29-0.84l1.16 4.53a1.7 1.7 0 0 1-1.22 2.06 2.13 2.13 0 0 1-0.42 0.06zM628.07 467.74a1.71 1.71 0 0 1-1.64-1.28l-1.16-4.53a1.7 1.7 0 0 1 1.22-2.06 1.75 1.75 0 0 1 2.06 1.22l1.16 4.53a1.69 1.69 0 0 1-1.22 2.06 1.93 1.93 0 0 1-0.42 0.06zM643.52 344.86a1.71 1.71 0 0 1-1.64-1.28l-1.16-4.53a1.69 1.69 0 1 1 3.28-0.84l1.17 4.53a1.7 1.7 0 0 1-1.17 2.06 2.12 2.12 0 0 1-0.48 0.06zM627.29 411.73a1.69 1.69 0 0 1-1.64-1.27l-1.16-4.54a1.7 1.7 0 0 1 1.22-2.06 1.76 1.76 0 0 1 2.06 1.22l1.16 4.53a1.72 1.72 0 0 1-1.22 2.07 3 3 0 0 1-0.42 0.05zM672.15 363.36a1.71 1.71 0 0 1-1.65-1.28l-1.16-4.53a1.7 1.7 0 0 1 1.22-2.06 1.75 1.75 0 0 1 2.07 1.22l1.16 4.53a1.7 1.7 0 0 1-1.22 2.06 2.13 2.13 0 0 1-0.42 0.06zM656.58 376.74a1.69 1.69 0 0 1-1.64-1.28l-1.16-4.53a1.69 1.69 0 0 1 1.22-2.06 1.72 1.72 0 0 1 2.06 1.22l1.16 4.53a1.7 1.7 0 0 1-1.22 2.06 2.13 2.13 0 0 1-0.42 0.06z" fill="#FF5F00" p-id="2033"></path><path d="M621.55 510.87a1.71 1.71 0 0 1-1.64-1.28l-1.14-4.53A1.68 1.68 0 0 1 620 503a1.72 1.72 0 0 1 2.07 1.22l1.14 4.53a1.68 1.68 0 0 1-1.22 2.06 2.13 2.13 0 0 1-0.44 0.06zM753.64 247.05a1.69 1.69 0 0 1-1.64-1.28l-1.16-4.53a1.7 1.7 0 0 1 1.22-2.06 1.73 1.73 0 0 1 2.06 1.22l1.16 4.53a1.7 1.7 0 0 1-1.22 2.06 1.93 1.93 0 0 1-0.42 0.06zM684.68 320.7a1.7 1.7 0 0 1-1.64-1.28l-1.15-4.53a1.7 1.7 0 0 1 1.22-2.06 1.74 1.74 0 0 1 2.06 1.22l1.15 4.53a1.7 1.7 0 0 1-1.22 2.06 2.23 2.23 0 0 1-0.42 0.06zM715.19 227.33a1.71 1.71 0 0 1-1.64-1.28l-1.15-4.53a1.69 1.69 0 0 1 1.22-2.06 1.72 1.72 0 0 1 2.06 1.22l1.15 4.53a1.7 1.7 0 0 1-1.22 2.06 2.23 2.23 0 0 1-0.42 0.06zM698 224.86a1.71 1.71 0 0 1-1.64-1.28l-1.16-4.53a1.69 1.69 0 1 1 3.28-0.84l1.16 4.53a1.69 1.69 0 0 1-1.22 2.06 1.93 1.93 0 0 1-0.42 0.06zM709.65 263a1.71 1.71 0 0 1-1.64-1.28l-1.16-4.53a1.7 1.7 0 0 1 1.22-2.06 1.74 1.74 0 0 1 2.06 1.22l1.17 4.53a1.7 1.7 0 0 1-1.22 2.06 2.12 2.12 0 0 1-0.43 0.06z" fill="#FF5F00" p-id="2034"></path><path d="M305.63 810.1a11.9 11.9 0 0 1-11.9-11.89v-116a11.9 11.9 0 0 1 23.79 0v116a11.9 11.9 0 0 1-11.89 11.89zM305.63 641.75a11.9 11.9 0 0 1-11.9-11.89v-11.63a11.9 11.9 0 1 1 23.79 0v11.63a11.9 11.9 0 0 1-11.89 11.89z" fill="#FFFFFF" p-id="2035"></path></svg>